<?xml version="1.0" encoding="UTF-8"?>
<svg version="1.1" xmlns="http://www.w3.org/2000/svg" width="192" height="192">
<path d="M0 0 C63.36 0 126.72 0 192 0 C192 63.36 192 126.72 192 192 C128.64 192 65.28 192 0 192 C0 128.64 0 65.28 0 0 Z " fill="#FEFEFE" transform="translate(0,0)"/>
<path d="M0 0 C0.33 0 0.66 0 1 0 C1 1.65 1 3.3 1 5 C10.37293037 7.726261 21.58312686 7.82506194 31 5 C31 4.34 31 3.68 31 3 C36.97689202 3.7471115 42.05821919 6.70547946 47 10 C47 10.66 47 11.32 47 12 C44.36 12 41.72 12 39 12 C41.64 12.99 44.28 13.98 47 15 C47.33 14.34 47.66 13.68 48 13 C51.67024761 14.22341587 52.3606842 15.83514059 54.1484375 19.14453125 C55.18118719 21.39478859 55.70252005 23.54579041 56 26 C51.49262311 24.65996903 50.22965321 23.04737636 48 19 C41.00749893 19.89109834 34.15086513 20.89075115 27.3125 22.625 C21.4536819 24.05731548 16.00644397 24.32499797 10 24 C9.505 26.475 9.505 26.475 9 29 C8.67 29 8.34 29 8 29 C8 27.02 8 25.04 8 23 C5.95928485 22.66089006 3.91737379 22.32897296 1.875 22 C0.73804688 21.814375 -0.39890625 21.62875 -1.5703125 21.4375 C-4.76137602 21.03043951 -7.78817791 20.92190098 -11 21 C-11 23.97 -11 26.94 -11 30 C-9.02 30.66 -7.04 31.32 -5 32 C-4.67 30.35 -4.34 28.7 -4 27 C-2.02 27 -0.04 27 2 27 C2 29.31 2 31.62 2 34 C16.60541915 37.88541599 29.99939574 33.66686809 44 29 C44.33 26.03 44.66 23.06 45 20 C45.99 20 46.98 20 48 20 C48.99 22.97 48.99 22.97 50 26 C51.175625 26.2165625 51.175625 26.2165625 52.375 26.4375 C55 27 55 27 57 28 C57.66 26.68 58.32 25.36 59 24 C59 24.99 59 25.98 59 27 C60.485 27.495 60.485 27.495 62 28 C61.01 28 60.02 28 59 28 C58.67 30.31 58.34 32.62 58 35 C61.63 35 65.26 35 69 35 C68.83042912 42.8002607 64.5384564 48.09000568 59.4375 53.7265625 C49.698834 62.83221521 36.15717436 68.29967975 22.9375 68.8125 C22.11749512 68.84746582 21.29749023 68.88243164 20.45263672 68.91845703 C2.8261637 69.46002403 -13.48357149 66.02939943 -27 54 C-29.27674468 51.47649158 -31.18320942 48.86731575 -33 46 C-33.61875 45.113125 -34.2375 44.22625 -34.875 43.3125 C-36.15594865 40.67943889 -36.24791659 38.89236016 -36 36 C-33.69 36 -31.38 36 -29 36 C-29.66 35.01 -30.32 34.02 -31 33 C-31 31.68 -31 30.36 -31 29 C-29.35 28.67 -27.7 28.34 -26 28 C-25.82984375 28.80824219 -25.6596875 29.61648437 -25.484375 30.44921875 C-23.76829045 38.47120913 -23.76829045 38.47120913 -19 45 C-19.268125 44.505 -19.53625 44.01 -19.8125 43.5 C-24 34.68421053 -24 34.68421053 -24 30 C-21.36 30 -18.72 30 -16 30 C-15.84807702 26.14631219 -15.84807702 26.14631219 -16.6875 23.0625 C-17 20 -17 20 -16.1875 17.3125 C-12.83546933 13.76892472 -8.68427231 12.98827701 -4 12 C-3.34 12 -2.68 12 -2 12 C-2 12.99 -2 13.98 -2 15 C3.28 15.66 8.56 16.32 14 17 C13.505 15.02 13.505 15.02 13 13 C5.68888841 11.08103145 -0.53798437 10.95349781 -8 12 C-9.11375 12.14695312 -9.11375 12.14695312 -10.25 12.296875 C-11.83575301 12.51427662 -13.41843445 12.75397869 -15 13 C-15.13792969 13.57363281 -15.27585937 14.14726563 -15.41796875 14.73828125 C-15.97960926 16.92076349 -16.59506347 19.05122252 -17.3125 21.1875 C-17.64701172 22.22970703 -17.64701172 22.22970703 -17.98828125 23.29296875 C-19 25 -19 25 -21.10546875 25.73828125 C-21.73066406 25.82464844 -22.35585938 25.91101563 -23 26 C-22.73075936 19.53822476 -20.59127224 15.55568098 -16 11 C-6.82575758 4 -6.82575758 4 -1 4 C-0.67 2.68 -0.34 1.36 0 0 Z " fill="#98B651" transform="translate(80,60)"/>
<path d="M0 0 C0.33 0 0.66 0 1 0 C1 1.65 1 3.3 1 5 C10.37293037 7.726261 21.58312686 7.82506194 31 5 C31 4.34 31 3.68 31 3 C36.97689202 3.7471115 42.05821919 6.70547946 47 10 C47 10.66 47 11.32 47 12 C44.36 12 41.72 12 39 12 C41.64 12.99 44.28 13.98 47 15 C47.33 14.34 47.66 13.68 48 13 C51.67024761 14.22341587 52.3606842 15.83514059 54.1484375 19.14453125 C55.18118719 21.39478859 55.70252005 23.54579041 56 26 C51.49262311 24.65996903 50.22965321 23.04737636 48 19 C41.00749893 19.89109834 34.15086513 20.89075115 27.3125 22.625 C21.4536819 24.05731548 16.00644397 24.32499797 10 24 C9.505 26.475 9.505 26.475 9 29 C8.67 29 8.34 29 8 29 C8 27.02 8 25.04 8 23 C5.95928485 22.66089006 3.91737379 22.32897296 1.875 22 C0.73804687 21.814375 -0.39890625 21.62875 -1.5703125 21.4375 C-4.76137602 21.03043951 -7.78817791 20.92190098 -11 21 C-11 23.97 -11 26.94 -11 30 C-9.02 30.66 -7.04 31.32 -5 32 C-4.67 30.35 -4.34 28.7 -4 27 C-2.02 27 -0.04 27 2 27 C2 29.31 2 31.62 2 34 C16.60541915 37.88541599 29.99939574 33.66686809 44 29 C44.33 26.03 44.66 23.06 45 20 C45.99 20 46.98 20 48 20 C48.99 22.97 48.99 22.97 50 26 C50.804375 26.12375 51.60875 26.2475 52.4375 26.375 C53.7059375 26.684375 53.7059375 26.684375 55 27 C55.495 27.99 55.495 27.99 56 29 C53.36 29 50.72 29 48 29 C48 29.66 48 30.32 48 31 C51.96 30.505 51.96 30.505 56 30 C55.68916714 36.06124079 52.67611609 40.36828875 49 45 C48.01 45.495 48.01 45.495 47 46 C46.75 39.375 46.75 39.375 49 36 C47.3954444 36.14148989 45.79136233 36.28835686 44.1875 36.4375 C43.29417969 36.51871094 42.40085937 36.59992188 41.48046875 36.68359375 C38.87256441 36.93489767 38.87256441 36.93489767 36 38 C27.64191612 39.19348208 19.23538823 39.12152833 10.8125 39.0625 C8.9552832 39.05573242 8.9552832 39.05573242 7.06054688 39.04882812 C4.04031215 39.03716699 1.02018323 39.02080236 -2 39 C-2.66 37.68 -3.32 36.36 -4 35 C-8.62 35.66 -13.24 36.32 -18 37 C-18 38.98 -18 40.96 -18 43 C-22.5929708 39.47872239 -23.11941917 35.42252403 -24 30 C-21.36 30 -18.72 30 -16 30 C-15.84807702 26.14631219 -15.84807702 26.14631219 -16.6875 23.0625 C-17 20 -17 20 -16.1875 17.3125 C-12.83546933 13.76892472 -8.68427231 12.98827701 -4 12 C-3.34 12 -2.68 12 -2 12 C-2 12.99 -2 13.98 -2 15 C3.28 15.66 8.56 16.32 14 17 C13.505 15.02 13.505 15.02 13 13 C5.68888841 11.08103145 -0.53798437 10.95349781 -8 12 C-9.11375 12.14695312 -9.11375 12.14695312 -10.25 12.296875 C-11.83575301 12.51427662 -13.41843445 12.75397869 -15 13 C-15.13792969 13.57363281 -15.27585937 14.14726563 -15.41796875 14.73828125 C-15.97960926 16.92076349 -16.59506347 19.05122252 -17.3125 21.1875 C-17.53550781 21.88230469 -17.75851563 22.57710937 -17.98828125 23.29296875 C-19 25 -19 25 -21.10546875 25.73828125 C-21.73066406 25.82464844 -22.35585938 25.91101563 -23 26 C-22.73075936 19.53822476 -20.59127224 15.55568098 -16 11 C-6.82575758 4 -6.82575758 4 -1 4 C-0.67 2.68 -0.34 1.36 0 0 Z " fill="#1B4570" transform="translate(80,60)"/>
<path d="M0 0 C0.495 1.485 0.495 1.485 1 3 C1.99 3.33 2.98 3.66 4 4 C3.01 4 2.02 4 1 4 C0.9175 4.99 0.835 5.98 0.75 7 C-0.18063043 13.46198312 -3.13564119 18.6903258 -8 23 C-10.59033203 24.14086914 -10.59033203 24.14086914 -13.5078125 25.03515625 C-14.57773438 25.36966797 -15.64765625 25.70417969 -16.75 26.04882812 C-18.420625 26.5505957 -18.420625 26.5505957 -20.125 27.0625 C-21.76082031 27.57006836 -21.76082031 27.57006836 -23.4296875 28.08789062 C-25.59682846 28.75799342 -27.76868802 29.41303238 -29.94506836 30.05249023 C-32.9497746 30.938481 -32.9497746 30.938481 -35.58813477 32.04321289 C-43.06631285 34.92314387 -48.36824848 33.01506025 -55.6875 30.3125 C-57.85793 29.55818241 -60.02849916 28.80426507 -62.19921875 28.05078125 C-63.20388184 27.69064941 -64.20854492 27.33051758 -65.24365234 26.95947266 C-67.55319859 26.15552963 -69.84979799 25.43890955 -72.20703125 24.79296875 C-75 24 -75 24 -76 23 C-76.07205511 21.31391034 -76.08386068 19.62499341 -76.0625 17.9375 C-76.05347656 17.01839844 -76.04445312 16.09929687 -76.03515625 15.15234375 C-76.02355469 14.44207031 -76.01195312 13.73179688 -76 13 C-66.71517672 10.43866944 -66.71517672 10.43866944 -62 11 C-61.01 12.485 -61.01 12.485 -60 14 C-57.36949907 14.43423787 -57.36949907 14.43423787 -54.28515625 14.328125 C-53.12306641 14.32296875 -51.96097656 14.3178125 -50.76367188 14.3125 C-48.9315918 14.2815625 -48.9315918 14.2815625 -47.0625 14.25 C-45.87591797 14.24484375 -44.68933594 14.2396875 -43.46679688 14.234375 C-30.45561883 14.16502723 -30.45561883 14.16502723 -17.6875 11.9375 C-14.27062757 11.06880362 -11.50100424 10.82494979 -8 11 C-8.33 11.53625 -8.66 12.0725 -9 12.625 C-10.22699204 15.5391061 -10.14233286 17.86867708 -10 21 C-5.03951633 13.98966576 -5.03951633 13.98966576 -2 6 C-4.64 6.33 -7.28 6.66 -10 7 C-10 6.34 -10 5.68 -10 5 C-5.545 4.505 -5.545 4.505 -1 4 C-0.67 2.68 -0.34 1.36 0 0 Z " fill="#8B999C" transform="translate(138,84)"/>
<path d="M0 0 C0.33 0 0.66 0 1 0 C1 1.65 1 3.3 1 5 C10.37293037 7.726261 21.58312686 7.82506194 31 5 C31 4.34 31 3.68 31 3 C36.97689202 3.7471115 42.05821919 6.70547946 47 10 C47 10.66 47 11.32 47 12 C44.36 12 41.72 12 39 12 C41.64 12.99 44.28 13.98 47 15 C47.33 14.34 47.66 13.68 48 13 C51.67024761 14.22341587 52.3606842 15.83514059 54.1484375 19.14453125 C55.18118719 21.39478859 55.70252005 23.54579041 56 26 C51.49262311 24.65996903 50.22965321 23.04737636 48 19 C45.74963714 19.30987617 43.49972106 19.62299818 41.25 19.9375 C39.99703125 20.11152344 38.7440625 20.28554687 37.453125 20.46484375 C34.18754168 20.91530421 34.18754168 20.91530421 31.78125 21.5625 C28.87703779 22.27581528 25.97285151 22.05717022 23 22 C23 21.67 23 21.34 23 21 C21.85402344 20.86722656 20.70804688 20.73445313 19.52734375 20.59765625 C17.99739032 20.41931812 16.46744271 20.24093004 14.9375 20.0625 C14.18533203 19.97548828 13.43316406 19.88847656 12.65820312 19.79882812 C8.09411781 19.26536361 3.54606466 18.67013702 -1 18 C-1 17.34 -1 16.68 -1 16 C9.55808656 15.81548975 9.55808656 15.81548975 14 17 C13.505 15.02 13.505 15.02 13 13 C5.68888841 11.08103145 -0.53798437 10.95349781 -8 12 C-9.11375 12.14695312 -9.11375 12.14695312 -10.25 12.296875 C-11.83575301 12.51427662 -13.41843445 12.75397869 -15 13 C-15.13792969 13.57363281 -15.27585937 14.14726563 -15.41796875 14.73828125 C-15.97960926 16.92076349 -16.59506347 19.05122252 -17.3125 21.1875 C-17.53550781 21.88230469 -17.75851563 22.57710937 -17.98828125 23.29296875 C-19 25 -19 25 -21.10546875 25.73828125 C-21.73066406 25.82464844 -22.35585938 25.91101563 -23 26 C-22.73075936 19.53822476 -20.59127224 15.55568098 -16 11 C-6.82575758 4 -6.82575758 4 -1 4 C-0.67 2.68 -0.34 1.36 0 0 Z " fill="#12375A" transform="translate(80,60)"/>
<path d="M0 0 C1.01866229 1.65532623 2.01810813 3.32260138 3 5 C5.06700655 6.32793606 5.06700655 6.32793606 7 7 C6.67 7.66 6.34 8.32 6 9 C4.02 8.67 2.04 8.34 0 8 C-0.66 5.69 -1.32 3.38 -2 1 C-2.33 1 -2.66 1 -3 1 C-3.33 3.97 -3.66 6.94 -4 10 C-17.86127931 16.4106053 -32.26125128 19.91291624 -47 15 C-47 12.69 -47 10.38 -47 8 C-48.98 8.33 -50.96 8.66 -53 9 C-53.33 10.32 -53.66 11.64 -54 13 C-59.875 12.125 -59.875 12.125 -61 11 C-61.0979057 9.50261876 -61.12974864 8.00057108 -61.125 6.5 C-61.12757812 5.6853125 -61.13015625 4.870625 -61.1328125 4.03125 C-61 2 -61 2 -60 1 C-53.5305091 1.16687179 -47.26642913 2.48392844 -41 4 C-40.67 5.32 -40.34 6.64 -40 8 C-39.67 7.01 -39.34 6.02 -39 5 C-37.72382812 4.85304688 -37.72382812 4.85304688 -36.421875 4.703125 C-27.7419969 3.63199111 -19.24449279 2.12948679 -10.70410156 0.23339844 C-9.48352051 -0.02715332 -9.48352051 -0.02715332 -8.23828125 -0.29296875 C-7.51680908 -0.4530542 -6.79533691 -0.61313965 -6.05200195 -0.77807617 C-3.72414997 -1.02983316 -2.18616914 -0.83261788 0 0 Z " fill="#88939A" transform="translate(129,79)"/>
<path d="M0 0 C0.13535156 0.7734375 0.27070312 1.546875 0.41015625 2.34375 C1.91548964 9.6270397 3.63272565 15.6481064 10 20 C13.05468337 21.05924992 16.00834935 21.65847079 19.1953125 22.203125 C22.17023485 22.82620935 24.67411436 23.55005688 27.4921875 24.609375 C28.26973389 24.8986084 29.04728027 25.1878418 29.84838867 25.48583984 C31.36745312 26.06327776 32.87883373 26.66150976 34.38012695 27.28369141 C40.76236623 29.65100581 44.77536109 28.28179026 51 26 C53.0863654 25.37754292 55.1764352 24.76740374 57.26953125 24.16796875 C59.45087403 23.50898051 61.63185993 22.84880984 63.8125 22.1875 C64.91787109 21.86974609 66.02324219 21.55199219 67.16210938 21.22460938 C73.58548166 19.24908279 77.39302179 17.78200155 81 12 C82.3049484 9.2875382 82.3049484 9.2875382 83 7 C83.99 7.33 84.98 7.66 86 8 C84.125 12.875 84.125 12.875 83 14 C82.89469775 15.76966284 82.8157008 17.54092484 82.75 19.3125 C82.32105135 24.65360249 82.32105135 24.65360249 79.625 27.5625 C78.75875 28.036875 77.8925 28.51125 77 29 C76.01 29.66 75.02 30.32 74 31 C64.45462511 33.33235405 54.45091111 33.2347039 44.6875 33.3125 C42.90001343 33.33884521 42.90001343 33.33884521 41.07641602 33.36572266 C27.7489132 33.35643196 15.63595329 29.62590774 5.75 20.3125 C0.75713483 14.95858053 -5 8.52221239 -5 1 C-3 0 -3 0 0 0 Z " fill="#216A6C" transform="translate(54,88)"/>
<path d="M0 0 C2.5 1.1875 2.5 1.1875 4 3 C4.60666934 6.94335069 3.85510248 8.28979504 2 12 C5.3 12 8.6 12 12 12 C12 12.99 12 13.98 12 15 C12.71285156 15.23074219 13.42570312 15.46148437 14.16015625 15.69921875 C21.34091922 18.14435069 27.64102187 20.46153281 32 27 C31.625 29.1875 31.625 29.1875 31 31 C29.68 29.68 28.36 28.36 27 27 C26.505 28.485 26.505 28.485 26 30 C21.545 28.02 21.545 28.02 17 26 C20.47823115 24.84058962 22.45895578 25.29179116 26 26 C26 25.34 26 24.68 26 24 C22.6578074 22.26400675 19.22999945 20.81239108 15.75 19.375 C14.67234375 18.92898437 13.5946875 18.48296875 12.484375 18.0234375 C11.66453125 17.68570313 10.8446875 17.34796875 10 17 C10 17.66 10 18.32 10 19 C10.99 19.33 11.98 19.66 13 20 C1.03841659 21.7333552 -10.04232529 22.55300719 -22 20 C-21.34 19.67 -20.68 19.34 -20 19 C-20.33 18.401875 -20.66 17.80375 -21 17.1875 C-22 15 -22 15 -22 12 C-17.71 12 -13.42 12 -9 12 C-10.32 10.35 -11.64 8.7 -13 7 C-10.66871519 0.18547517 -6.91207627 -0.89008628 0 0 Z " fill="#82958C" transform="translate(101,46)"/>
<path d="M0 0 C3.63 0 7.26 0 11 0 C10.83042912 7.8002607 6.5384564 13.09000568 1.4375 18.7265625 C-9.05774776 28.53961916 -22.37877363 33.44449685 -36.47265625 33.10546875 C-37.30667969 33.07066406 -38.14070313 33.03585938 -39 33 C-39 31.68 -39 30.36 -39 29 C-43.455 28.01 -43.455 28.01 -48 27 C-48 26.67 -48 26.34 -48 26 C-47.38181396 25.98018066 -46.76362793 25.96036133 -46.12670898 25.93994141 C-23.39543288 26.70283891 -23.39543288 26.70283891 -3.23828125 18.90625 C-1.22713651 15.81022908 -1.66058898 12.98650159 -1.984375 9.4140625 C-2.00904444 5.60263423 -0.39903221 3.84885075 2 1 C1.34 0.67 0.68 0.34 0 0 Z " fill="#668E51" transform="translate(138,95)"/>
<path d="M0 0 C7.15506336 0.60481397 13.40931775 2.58794053 20.13671875 5.01953125 C21.88498009 5.60805487 23.6348031 6.19197664 25.38671875 6.76953125 C26.62421875 7.18203125 27.86171875 7.59453125 29.13671875 8.01953125 C29.13671875 11.64953125 29.13671875 15.27953125 29.13671875 19.01953125 C24.20515033 17.59381716 19.27929084 16.15085089 14.36035156 14.68212891 C12.38910329 14.09473675 10.41542423 13.51551584 8.44140625 12.9375 C6.86746094 12.45216797 6.86746094 12.45216797 5.26171875 11.95703125 C3.87339844 11.53744141 3.87339844 11.53744141 2.45703125 11.109375 C-0.27611945 9.8256224 -1.3507442 8.60962738 -2.86328125 6.01953125 C-3.11328125 3.33203125 -3.11328125 3.33203125 -2.86328125 1.01953125 C-1.86328125 0.01953125 -1.86328125 0.01953125 0 0 Z " fill="#CDE3E3" transform="translate(66.86328125,98.98046875)"/>
<path d="M0 0 C0.13535156 0.7734375 0.27070312 1.546875 0.41015625 2.34375 C1.90983574 9.59968429 3.71592623 15.58951119 10 20 C12.65699432 20.83926018 15.09152952 21.29185804 17.86328125 21.55078125 C20 22 20 22 22 25 C24.69095132 26.22714392 27.28413379 27.27079822 30.0625 28.25 C30.78888672 28.53101562 31.51527344 28.81203125 32.26367188 29.1015625 C42.18234357 32.64457166 50.21461569 29.5188644 59.75 26 C61.76456067 25.2678979 63.78015263 24.53862606 65.796875 23.8125 C66.67698242 23.48894531 67.55708984 23.16539063 68.46386719 22.83203125 C70.96331336 22.01203582 73.41238074 21.46012448 76 21 C69.91097236 28.47289756 59.20904394 31.69022418 50 33 C40.24496384 33.73756026 30.05542565 34.15170899 21 30 C20.08992188 29.58621094 19.17984375 29.17242187 18.2421875 28.74609375 C7.70664588 23.47832294 0.25447583 15.57463261 -5 5 C-5 3.68 -5 2.36 -5 1 C-3 0 -3 0 0 0 Z " fill="#205869" transform="translate(54,88)"/>
<path d="M0 0 C0.66 0.99 1.32 1.98 2 3 C4.63050093 3.43423787 4.63050093 3.43423787 7.71484375 3.328125 C8.87693359 3.32296875 10.03902344 3.3178125 11.23632812 3.3125 C13.0684082 3.2815625 13.0684082 3.2815625 14.9375 3.25 C16.12408203 3.24484375 17.31066406 3.2396875 18.53320312 3.234375 C31.54438117 3.16502723 31.54438117 3.16502723 44.3125 0.9375 C47.72937243 0.06880362 50.49899576 -0.17505021 54 0 C53 1.9375 53 1.9375 51 4 C49.10286314 4.25155406 47.20418536 4.495298 45.30029297 4.68920898 C40.47521293 5.34112226 35.81596979 6.89906972 31.15429688 8.27148438 C22.63549384 10.64898595 15.52126677 10.49912983 7.0625 8.0625 C1.0474855 6.43567341 -4.75187035 5.30039085 -11 5 C-10.51515724 9.64586892 -10.51515724 9.64586892 -9 14 C-12.875 13.125 -12.875 13.125 -14 12 C-14.07205511 10.31391034 -14.08386068 8.62499341 -14.0625 6.9375 C-14.05347656 6.01839844 -14.04445312 5.09929687 -14.03515625 4.15234375 C-14.02355469 3.44207031 -14.01195312 2.73179688 -14 2 C-4.71517672 -0.56133056 -4.71517672 -0.56133056 0 0 Z " fill="#287C7E" transform="translate(76,95)"/>
<path d="M0 0 C0.33 0 0.66 0 1 0 C1 1.65 1 3.3 1 5 C4.3 5.66 7.6 6.32 11 7 C11 7.33 11 7.66 11 8 C17.93 8.495 17.93 8.495 25 9 C25 9.66 25 10.32 25 11 C25.66 11.33 26.32 11.66 27 12 C27 12.99 27 13.98 27 15 C20.72288271 17.547236 14.79958657 18.94506889 8 18 C7.01 17.34 6.02 16.68 5 16 C7.97 16.33 10.94 16.66 14 17 C13.505 15.02 13.505 15.02 13 13 C5.68888841 11.08103145 -0.53798437 10.95349781 -8 12 C-9.11375 12.14695312 -9.11375 12.14695312 -10.25 12.296875 C-11.83575301 12.51427662 -13.41843445 12.75397869 -15 13 C-15.13792969 13.57363281 -15.27585937 14.14726563 -15.41796875 14.73828125 C-15.97960926 16.92076349 -16.59506347 19.05122252 -17.3125 21.1875 C-17.53550781 21.88230469 -17.75851563 22.57710937 -17.98828125 23.29296875 C-19 25 -19 25 -21.10546875 25.73828125 C-21.73066406 25.82464844 -22.35585938 25.91101563 -23 26 C-22.73075936 19.53822476 -20.59127224 15.55568098 -16 11 C-6.82575758 4 -6.82575758 4 -1 4 C-0.67 2.68 -0.34 1.36 0 0 Z " fill="#22505A" transform="translate(80,60)"/>
<path d="M0 0 C0 1.32 0 2.64 0 4 C-1.91697937 3.85833643 -3.83357723 3.71150416 -5.75 3.5625 C-6.81734375 3.48128906 -7.8846875 3.40007812 -8.984375 3.31640625 C-11.43679962 3.05909227 -13.63921291 2.68187782 -16 2 C-16 1.01 -16 0.02 -16 -1 C-16.61488281 -0.7834375 -17.22976562 -0.566875 -17.86328125 -0.34375 C-18.67152344 -0.0653125 -19.47976562 0.213125 -20.3125 0.5 C-21.51326172 0.91765625 -21.51326172 0.91765625 -22.73828125 1.34375 C-25 2 -25 2 -28 2 C-30.19671115 7.85789639 -29.88178944 11.0410001 -28 17 C-30.73905345 18.36952673 -32.97087332 18.12621361 -36 18 C-36.66 17.67 -37.32 17.34 -38 17 C-37.3819713 18.79408332 -36.75533919 20.58520478 -36.125 22.375 C-35.60292969 23.87160156 -35.60292969 23.87160156 -35.0703125 25.3984375 C-34.15217498 28.10442118 -34.15217498 28.10442118 -32 30 C-32.33 30.99 -32.66 31.98 -33 33 C-37.56281684 28.07696078 -39.83043117 23.98486748 -40.125 17.0625 C-40.08375 16.381875 -40.0425 15.70125 -40 15 C-41.65 15.33 -43.3 15.66 -45 16 C-44.67 17.65 -44.34 19.3 -44 21 C-46 21 -46 21 -48.6875 19.125 C-51.30661165 15.58565994 -51.25153973 14.87024342 -50.8125 10.6875 C-50.56775915 9.12070108 -50.30518762 7.5561547 -50 6 C-46.535 5.505 -46.535 5.505 -43 5 C-43.33 5.66 -43.66 6.32 -44 7 C-44.99 7 -45.98 7 -47 7 C-47 8.65 -47 10.3 -47 12 C-45.824375 12.2165625 -45.824375 12.2165625 -44.625 12.4375 C-42 13 -42 13 -40 14 C-39.67 12.35 -39.34 10.7 -39 9 C-38.34 9.33 -37.68 9.66 -37 10 C-37 10.99 -37 11.98 -37 13 C-34.98567734 12.49743888 -34.98567734 12.49743888 -33 11 C-31.81758345 7.61175003 -31.81758345 7.61175003 -31 4 C-30.27734375 1.88671875 -30.27734375 1.88671875 -29 0 C-20.52369866 -3.88088508 -8.25670035 -4.82302448 0 0 Z " fill="#D8E0E5" transform="translate(94,73)"/>
<path d="M0 0 C6.4694909 0.16687179 12.73357087 1.48392844 19 3 C19.33 4.32 19.66 5.64 20 7 C20.33 6.01 20.66 5.02 21 4 C23.97 4.495 23.97 4.495 27 5 C27 7.31 27 9.62 27 12 C27.99 12.33 28.98 12.66 30 13 C29.34 13 28.68 13 28 13 C28 14.32 28 15.64 28 17 C26.06201479 16.69052329 24.12462574 16.37731166 22.1875 16.0625 C21.10855469 15.88847656 20.02960938 15.71445313 18.91796875 15.53515625 C16 15 16 15 13 14 C13 11.69 13 9.38 13 7 C11.02 7.33 9.04 7.66 7 8 C6.67 9.32 6.34 10.64 6 12 C0.125 11.125 0.125 11.125 -1 10 C-1.0979057 8.50261876 -1.12974864 7.00057108 -1.125 5.5 C-1.12757812 4.6853125 -1.13015625 3.870625 -1.1328125 3.03125 C-1 1 -1 1 0 0 Z " fill="#CCD4D9" transform="translate(69,80)"/>
<path d="M0 0 C3 2 3 2 3.6875 4.625 C3.790625 5.40875 3.89375 6.1925 4 7 C5.2065625 7.185625 5.2065625 7.185625 6.4375 7.375 C7.7059375 7.684375 7.7059375 7.684375 9 8 C9.495 8.99 9.495 8.99 10 10 C7.36 10 4.72 10 2 10 C2 10.66 2 11.32 2 12 C4.64 11.67 7.28 11.34 10 11 C9.68916714 17.06124079 6.67611609 21.36828875 3 26 C2.34 26.33 1.68 26.66 1 27 C0.75 20.375 0.75 20.375 3 17 C-7.13270429 16.64237514 -16.96788765 17.75155935 -27 19 C-27 18.34 -27 17.68 -27 17 C-18.68214634 14.60785814 -10.35715006 12.25131389 -2 10 C-1.90912109 9.04287109 -1.90912109 9.04287109 -1.81640625 8.06640625 C-1.73261719 7.24011719 -1.64882812 6.41382812 -1.5625 5.5625 C-1.48128906 4.73878906 -1.40007812 3.91507812 -1.31640625 3.06640625 C-1 1 -1 1 0 0 Z " fill="#1D3B57" transform="translate(126,79)"/>
<path d="M0 0 C5.97689202 0.7471115 11.05821919 3.70547946 16 7 C16 7.66 16 8.32 16 9 C14.7625 8.938125 13.525 8.87625 12.25 8.8125 C8.39630042 8.61981502 7.00827881 9.69786297 4 12 C1.5625 12.765625 1.5625 12.765625 -1 13.25 C-1.845625 13.42015625 -2.69125 13.5903125 -3.5625 13.765625 C-6.01432071 14.00137699 -7.67413687 13.75375194 -10 13 C-8.02 12.67 -6.04 12.34 -4 12 C-4 11.01 -4 10.02 -4 9 C-7.81615468 6.52954197 -11.84744248 6.56168088 -16.25 6.375 C-16.99507813 6.33632812 -17.74015625 6.29765625 -18.5078125 6.2578125 C-20.3381524 6.16394892 -22.16904143 6.08090282 -24 6 C-24 5.67 -24 5.34 -24 5 C-23.12263184 4.91697632 -23.12263184 4.91697632 -22.22753906 4.83227539 C-19.56804892 4.57882735 -16.90903168 4.32071175 -14.25 4.0625 C-12.86941406 3.93198242 -12.86941406 3.93198242 -11.4609375 3.79882812 C-10.12675781 3.66831055 -10.12675781 3.66831055 -8.765625 3.53515625 C-7.94868164 3.456604 -7.13173828 3.37805176 -6.29003906 3.29711914 C-4.12879099 3.01670988 -2.09982687 2.57555495 0 2 C0 1.34 0 0.68 0 0 Z " fill="#0A5752" transform="translate(111,63)"/>
<path d="M0 0 C0.33 0 0.66 0 1 0 C1.29352731 3.05268407 1.4310293 5.95651261 1 9 C-1.3125 11.4375 -1.3125 11.4375 -4 13 C-4.99 13.66 -5.98 14.32 -7 15 C-14.93177962 16.54070539 -22.92511173 17.28332941 -31 17 C-31 16.67 -31 16.34 -31 16 C-29.90945312 15.77957031 -29.90945312 15.77957031 -28.796875 15.5546875 C-18.15096818 13.17983136 -8.59229414 9.62199487 -1.20703125 1.3203125 C-0.80871094 0.88460937 -0.41039062 0.44890625 0 0 Z " fill="#42663A" transform="translate(135,104)"/>
<path d="M0 0 C7.41804987 -0.40137745 13.87500357 0.43857589 21.0546875 2.34375 C23.81944619 2.9597705 26.18128093 3.12481413 29 3 C29 3.66 29 4.32 29 5 C29.66 4.67 30.32 4.34 31 4 C33.56340211 3.60228076 36.11377184 3.25080325 38.6875 2.9375 C39.38294922 2.84662109 40.07839844 2.75574219 40.79492188 2.66210938 C45.23273385 2.11100854 49.52866679 1.91209699 54 2 C54 2.33 54 2.66 54 3 C43.05264143 6.09830903 32.12942618 6.14180999 20.8125 6.0625 C18.9552832 6.05573242 18.9552832 6.05573242 17.06054688 6.04882812 C14.04031215 6.03716699 11.02018323 6.02080236 8 6 C7.34 4.68 6.68 3.36 6 2 C4.35 2 2.7 2 1 2 C0.67 1.34 0.34 0.68 0 0 Z " fill="#16596D" transform="translate(70,93)"/>
<path d="M0 0 C2.97 0.495 2.97 0.495 6 1 C6 3.31 6 5.62 6 8 C6.99 8.33 7.98 8.66 9 9 C8.34 9 7.68 9 7 9 C7 10.32 7 11.64 7 13 C5.06201479 12.69052329 3.12462574 12.37731166 1.1875 12.0625 C0.10855469 11.88847656 -0.97039062 11.71445313 -2.08203125 11.53515625 C-5 11 -5 11 -8 10 C-8 8.02 -8 6.04 -8 4 C-7.38125 3.87625 -6.7625 3.7525 -6.125 3.625 C-3.80879168 3.12802644 -3.80879168 3.12802644 -2 1 C-1.67 1.66 -1.34 2.32 -1 3 C-0.67 2.01 -0.34 1.02 0 0 Z " fill="#C0D1D7" transform="translate(90,84)"/>
<path d="M0 0 C0.66 0.99 1.32 1.98 2 3 C4.75436866 3.39869867 7.29507932 3.60718896 10.0625 3.6875 C10.8551123 3.72093506 11.64772461 3.75437012 12.46435547 3.78881836 C20.64059296 4.1000554 28.81963755 4.093194 37 4 C29.4944526 9.00369827 19.18024492 9.17420973 10.54052734 7.53271484 C-6.07888737 3.92111263 -6.07888737 3.92111263 -9 1 C-5.73842267 -0.08719244 -3.41589896 -0.29071481 0 0 Z " fill="#4FADB1" transform="translate(76,95)"/>
<path d="M0 0 C0.66 0 1.32 0 2 0 C5 1 5 1 6 3 C7.65 3 9.3 3 11 3 C7.7354972 6.2645028 3.58952701 6.93236055 -0.9375 7.125 C-1.618125 7.08375 -2.29875 7.0425 -3 7 C-3 6.34 -3 5.68 -3 5 C-3.78375 5.495 -4.5675 5.99 -5.375 6.5 C-8 8 -8 8 -10 8 C-10 8.66 -10 9.32 -10 10 C-11.65 9.67 -13.3 9.34 -15 9 C-16 6 -16 6 -15 3 C-12.03 3.495 -12.03 3.495 -9 4 C-8.67 3.01 -8.34 2.02 -8 1 C-2.59770115 -1.29885057 -2.59770115 -1.29885057 0 0 Z M-4 3 C-3.67 3.66 -3.34 4.32 -3 5 C-2.34 4.67 -1.68 4.34 -1 4 C-1.99 3.67 -2.98 3.34 -4 3 Z " fill="#89969A" transform="translate(114,104)"/>
<path d="M0 0 C0 0.99 0 1.98 0 3 C-6.27711729 5.547236 -12.20041343 6.94506889 -19 6 C-19.99 5.34 -20.98 4.68 -22 4 C-19.03 4.33 -16.06 4.66 -13 5 C-13.33 3.68 -13.66 2.36 -14 1 C-17.3 0.34 -20.6 -0.32 -24 -1 C-24 -1.33 -24 -1.66 -24 -2 C-21.08365878 -2.19502282 -18.16720455 -2.38129328 -15.25 -2.5625 C-14.0125 -2.64661133 -14.0125 -2.64661133 -12.75 -2.73242188 C-11.95078125 -2.78076172 -11.1515625 -2.82910156 -10.328125 -2.87890625 C-9.5949707 -2.9260376 -8.86181641 -2.97316895 -8.10644531 -3.02172852 C-4.49580319 -2.98448383 -2.58453671 -2.58453671 0 0 Z " fill="#268079" transform="translate(107,72)"/>
<path d="M0 0 C1.9375 0.3359375 1.9375 0.3359375 4.9375 2.3359375 C5.125 4.9609375 5.125 4.9609375 4.9375 7.3359375 C3.52804634 7.89610498 2.1094969 8.43342252 0.6875 8.9609375 C-0.10140625 9.26257813 -0.8903125 9.56421875 -1.703125 9.875 C-4.0625 10.3359375 -4.0625 10.3359375 -6.30078125 9.5390625 C-8.0625 8.3359375 -8.0625 8.3359375 -9 6.4609375 C-9.0625 4.3359375 -9.0625 4.3359375 -8.125 2.0859375 C-5.37771092 -0.24509566 -3.5018776 -0.06632344 0 0 Z " fill="#EEF1F3" transform="translate(48.0625,69.6640625)"/>
<path d="M0 0 C1.485 0.495 1.485 0.495 3 1 C-6.89075846 9.05061735 -18.42785635 12.2167611 -31 12 C-28.48158631 9.48158631 -26.35485196 8.97197085 -22.96875 7.87109375 C-21.76605469 7.47599609 -20.56335938 7.08089844 -19.32421875 6.67382812 C-18.04956887 6.2614414 -16.77482819 5.8493352 -15.5 5.4375 C-13.00964594 4.62603276 -10.5204348 3.81114837 -8.03125 2.99609375 C-6.36932617 2.45746704 -6.36932617 2.45746704 -4.67382812 1.90795898 C-2.06805731 1.09064142 -2.06805731 1.09064142 0 0 Z " fill="#0C293B" transform="translate(127,109)"/>
<path d="M0 0 C5.17671046 0.53924067 10.47088748 1.26691486 15 4 C15.75 6.5625 15.75 6.5625 16 9 C17.96758273 10.36020151 17.96758273 10.36020151 20 11 C20 10.34 20 9.68 20 9 C22.5614657 6.70351351 23.47967572 6 27 6 C27 6.66 27 7.32 27 8 C28.65 7.67 30.3 7.34 32 7 C28.71448216 9.82538389 25.57746197 10.928697 21.4375 12.125 C20.30183594 12.45757812 19.16617188 12.79015625 17.99609375 13.1328125 C17.00738281 13.41898438 16.01867187 13.70515625 15 14 C14.01 14.33 13.02 14.66 12 15 C12 11.37 12 7.74 12 4 C10.7625 3.896875 9.525 3.79375 8.25 3.6875 C4.7207134 3.26198318 2.62839034 2.51887408 0 0 Z M26 4 C26.99 4.33 27.98 4.66 29 5 C28.01 5 27.02 5 26 5 C26 4.67 26 4.34 26 4 Z " fill="#8E9D9F" transform="translate(84,103)"/>
<path d="M0 0 C1.01866229 1.65532623 2.01810813 3.32260138 3 5 C5.06700655 6.32793606 5.06700655 6.32793606 7 7 C6.67 7.66 6.34 8.32 6 9 C3.03 8.505 3.03 8.505 0 8 C-0.66 5.69 -1.32 3.38 -2 1 C-2.33 1 -2.66 1 -3 1 C-3.33 2.98 -3.66 4.96 -4 7 C-5.62171239 7.38897161 -7.24754925 7.76078298 -8.875 8.125 C-9.77992187 8.33382812 -10.68484375 8.54265625 -11.6171875 8.7578125 C-12.40351562 8.83773437 -13.18984375 8.91765625 -14 9 C-14.66 8.34 -15.32 7.68 -16 7 C-15.01 6.01 -14.02 5.02 -13 4 C-13.66 3.01 -14.32 2.02 -15 1 C-13.25215171 0.63536268 -11.50159498 0.2836922 -9.75 -0.0625 C-8.28820312 -0.35833984 -8.28820312 -0.35833984 -6.796875 -0.66015625 C-4.09886896 -0.98798659 -2.49837124 -1.02410713 0 0 Z " fill="#869298" transform="translate(129,79)"/>
<path d="M0 0 C2.5 1.5 2.5 1.5 4 3 C3.67 3.99 3.34 4.98 3 6 C1.35 5.67 -0.3 5.34 -2 5 C-2 5.99 -2 6.98 -2 8 C-4.97 7.505 -4.97 7.505 -8 7 C-8.33 7.99 -8.66 8.98 -9 10 C-10.32 9.01 -11.64 8.02 -13 7 C-10.6833134 0.22814687 -6.89907324 -0.95781902 0 0 Z " fill="#B0C4CB" transform="translate(101,46)"/>
<path d="M0 0 C5.97689202 0.7471115 11.05821919 3.70547946 16 7 C16 7.66 16 8.32 16 9 C14.54054712 8.91291331 13.08234132 8.80473093 11.625 8.6875 C10.81289062 8.62949219 10.00078125 8.57148437 9.1640625 8.51171875 C7 8 7 8 5 5 C4.41476563 5.0721875 3.82953125 5.144375 3.2265625 5.21875 C-5.84940605 6.19993579 -14.88534743 6.09024408 -24 6 C-24 5.67 -24 5.34 -24 5 C-23.12263184 4.91697632 -23.12263184 4.91697632 -22.22753906 4.83227539 C-19.56804892 4.57882735 -16.90903168 4.32071175 -14.25 4.0625 C-12.86941406 3.93198242 -12.86941406 3.93198242 -11.4609375 3.79882812 C-10.12675781 3.66831055 -10.12675781 3.66831055 -8.765625 3.53515625 C-7.94868164 3.456604 -7.13173828 3.37805176 -6.29003906 3.29711914 C-4.12879099 3.01670988 -2.09982687 2.57555495 0 2 C0 1.34 0 0.68 0 0 Z " fill="#1D4134" transform="translate(111,63)"/>
<path d="M0 0 C0.99 0 1.98 0 3 0 C3 0.66 3 1.32 3 2 C3.53625 2.12375 4.0725 2.2475 4.625 2.375 C7.4638286 3.12206016 10.22223202 4.05303364 13 5 C13 5.66 13 6.32 13 7 C13.66 7.33 14.32 7.66 15 8 C13.4188708 8.50692692 11.83498617 9.00526443 10.25 9.5 C9.36828125 9.7784375 8.4865625 10.056875 7.578125 10.34375 C5 11 5 11 1 11 C-0.17571451 7.32589215 -0.07366746 3.83070817 0 0 Z " fill="#8C99A0" transform="translate(96,85)"/>
<path d="M0 0 C6.93 0.495 6.93 0.495 14 1 C14 2.98 14 4.96 14 7 C12.2709226 7.02725341 10.54171824 7.04650987 8.8125 7.0625 C7.36810547 7.07990234 7.36810547 7.07990234 5.89453125 7.09765625 C3.14423487 7.00486622 0.67520409 6.62111685 -2 6 C-1.34 5.67 -0.68 5.34 0 5 C0 3.35 0 1.7 0 0 Z " fill="#CDDED5" transform="translate(81,60)"/>
<path d="M0 0 C0.68255859 0.17853516 1.36511719 0.35707031 2.06835938 0.54101562 C3.45286634 0.90315767 4.83681688 1.26743338 6.22021484 1.63378906 C13.68284316 3.64265855 13.68284316 3.64265855 21.3125 4.8125 C22.075625 4.88726562 22.83875 4.96203125 23.625 5.0390625 C24.181875 5.08804688 24.73875 5.13703125 25.3125 5.1875 C25.3125 5.5175 25.3125 5.8475 25.3125 6.1875 C19.87411611 7.30198074 15.84275647 6.88008859 10.5 5.3125 C4.43875972 3.65508564 -1.38562586 2.49047472 -7.6875 2.1875 C-7.20265724 6.83336892 -7.20265724 6.83336892 -5.6875 11.1875 C-9.5625 10.3125 -9.5625 10.3125 -10.6875 9.1875 C-10.75955511 7.50141034 -10.77136068 5.81249341 -10.75 4.125 C-10.74097656 3.20589844 -10.73195312 2.28679687 -10.72265625 1.33984375 C-10.71105469 0.62957031 -10.69945312 -0.08070312 -10.6875 -0.8125 C-6.73561333 -2.12979556 -3.88269768 -1.05178679 0 0 Z " fill="#318C8D" transform="translate(72.6875,97.8125)"/>
<path d="M0 0 C1.13308594 0.07863281 2.26617187 0.15726562 3.43359375 0.23828125 C6.29453138 0.6490276 8.11311022 1.2130516 10.5625 2.6875 C10.5625 4.0075 10.5625 5.3275 10.5625 6.6875 C8.64552063 6.54583643 6.72892277 6.39900416 4.8125 6.25 C3.74515625 6.16878906 2.6778125 6.08757812 1.578125 6.00390625 C-0.87429962 5.74659227 -3.07671291 5.36937782 -5.4375 4.6875 C-5.4375 3.6975 -5.4375 2.7075 -5.4375 1.6875 C-6.7575 1.3575 -8.0775 1.0275 -9.4375 0.6875 C-5.97493502 -0.46668833 -3.62883844 -0.27597296 0 0 Z " fill="#ECF1F1" transform="translate(83.4375,70.3125)"/>
<path d="M0 0 C-3.3 0.66 -6.6 1.32 -10 2 C-12.19671115 7.85789639 -11.88178944 11.0410001 -10 17 C-12.73905345 18.36952673 -14.97087332 18.12621361 -18 18 C-18.66 17.67 -19.32 17.34 -20 17 C-20 15.02 -20 13.04 -20 11 C-19.67 11.66 -19.34 12.32 -19 13 C-16.98567734 12.49743888 -16.98567734 12.49743888 -15 11 C-13.81758345 7.61175003 -13.81758345 7.61175003 -13 4 C-12.3125 1.6875 -12.3125 1.6875 -11 0 C-6.13338482 -1.98269507 -4.82485213 -2.41242607 0 0 Z " fill="#C2CDD4" transform="translate(76,73)"/>
<path d="M0 0 C-10.62895721 5.18004828 -19.89542502 6.49300774 -31.44140625 2.94140625 C-32.28574219 2.63074219 -33.13007812 2.32007812 -34 2 C-34 1.67 -34 1.34 -34 1 C-33.00987915 0.96241577 -33.00987915 0.96241577 -31.99975586 0.92407227 C-28.97884631 0.80728248 -25.95818578 0.68493554 -22.9375 0.5625 C-21.37999023 0.50352539 -21.37999023 0.50352539 -19.79101562 0.44335938 C-13.37224404 0.18762834 -13.37224404 0.18762834 -7.00390625 -0.59765625 C-4.23180751 -0.96895166 -2.59917508 -0.93570303 0 0 Z " fill="#5E8341" transform="translate(124,120)"/>
<path d="M0 0 C1.65 0.33 3.3 0.66 5 1 C4.01 1.33 3.02 1.66 2 2 C2 2.66 2 3.32 2 4 C3.44052734 3.9690625 3.44052734 3.9690625 4.91015625 3.9375 C9.46110569 3.9375 13.92362922 4.46168181 18.4375 5 C19.67790039 5.14308594 19.67790039 5.14308594 20.94335938 5.2890625 C22.96265139 5.52250666 24.98138682 5.76075696 27 6 C24.35560488 8.64439512 23.13205433 8.29862808 19.4375 8.3125 C13.78799173 8.23034831 8.36719122 7.58160516 2.8125 6.625 C2.06991943 6.49907471 1.32733887 6.37314941 0.56225586 6.2434082 C-4.74430204 5.25569796 -4.74430204 5.25569796 -7 3 C-3.535 2.505 -3.535 2.505 0 2 C0 1.34 0 0.68 0 0 Z " fill="#185890" transform="translate(77,74)"/>
<path d="M0 0 C0.99 0.66 1.98 1.32 3 2 C2.34 3.32 1.68 4.64 1 6 C4.3 6 7.6 6 11 6 C11 6.66 11 7.32 11 8 C8.22964291 8.22162857 5.45961005 8.42779249 2.6875 8.625 C1.90181641 8.68945312 1.11613281 8.75390625 0.30664062 8.8203125 C-0.45068359 8.871875 -1.20800781 8.9234375 -1.98828125 8.9765625 C-2.68477783 9.02893066 -3.38127441 9.08129883 -4.09887695 9.13525391 C-6 9 -6 9 -9 7 C-8.34 5.68 -7.68 4.36 -7 3 C-5.35 3 -3.7 3 -2 3 C-2 2.34 -2 1.68 -2 1 C-1.34 0.67 -0.68 0.34 0 0 Z " fill="#5E7D65" transform="translate(102,52)"/>
<path d="M0 0 C2.31 0 4.62 0 7 0 C7.33 0.99 7.66 1.98 8 3 C6.35 3 4.7 3 3 3 C3 3.66 3 4.32 3 5 C2.030625 5.28875 1.06125 5.5775 0.0625 5.875 C-3.10664203 6.64214682 -3.10664203 6.64214682 -4 9 C-1.36 9 1.28 9 4 9 C4 9.33 4 9.66 4 10 C-0.62459244 11.17700048 -5.07866462 11.11408412 -9.8125 11.0625 C-10.60076172 11.05798828 -11.38902344 11.05347656 -12.20117188 11.04882812 C-14.13414761 11.03711312 -16.06708393 11.01917998 -18 11 C-18 10.01 -18 9.02 -18 8 C-13.71 8 -9.42 8 -5 8 C-4.67 6.35 -4.34 4.7 -4 3 C-1.03 3.495 -1.03 3.495 2 4 C1.34 2.68 0.68 1.36 0 0 Z " fill="#90B464" transform="translate(97,50)"/>
<path d="M0 0 C-0.99 0.33 -1.98 0.66 -3 1 C-2.67 1.66 -2.34 2.32 -2 3 C-2.99 3.66 -3.98 4.32 -5 5 C-4.01 5.33 -3.02 5.66 -2 6 C-5 8 -5 8 -7.9375 7.75 C-10.59526679 7.09911834 -12.64517067 6.35855538 -15 5 C-15 4.34 -15 3.68 -15 3 C-16.98 3 -18.96 3 -21 3 C-21 2.67 -21 2.34 -21 2 C-18.25162151 1.46892686 -15.50187625 0.94984119 -12.75 0.4375 C-11.97269531 0.28603516 -11.19539063 0.13457031 -10.39453125 -0.02148438 C-9.64042969 -0.16005859 -8.88632813 -0.29863281 -8.109375 -0.44140625 C-7.07248535 -0.63778687 -7.07248535 -0.63778687 -6.01464844 -0.83813477 C-3.78712058 -1.01710362 -2.12493038 -0.65206197 0 0 Z " fill="#899397" transform="translate(114,82)"/>
<path d="M0 0 C1.37478516 0.01740234 1.37478516 0.01740234 2.77734375 0.03515625 C3.69644531 0.04417969 4.61554688 0.05320312 5.5625 0.0625 C6.27277344 0.07410156 6.98304687 0.08570312 7.71484375 0.09765625 C3.80678566 4.00571434 -1.3681106 4.99234769 -6.76953125 5.2890625 C-9.94683687 5.28559383 -13.11078401 5.23012619 -16.28515625 5.09765625 C-16.28515625 3.77765625 -16.28515625 2.45765625 -16.28515625 1.09765625 C-15.35832031 1.10925781 -14.43148437 1.12085937 -13.4765625 1.1328125 C-11.68025391 1.14634766 -11.68025391 1.14634766 -9.84765625 1.16015625 C-8.05521484 1.17755859 -8.05521484 1.17755859 -6.2265625 1.1953125 C-3.03057854 1.08920413 -2.96466291 0.126695 0 0 Z " fill="#7D9E5F" transform="translate(115.28515625,122.90234375)"/>
<path d="M0 0 C-0.33 0.66 -0.66 1.32 -1 2 C2.63 2 6.26 2 10 2 C10 2.33 10 2.66 10 3 C-0.23 3.99 -10.46 4.98 -21 6 C-21 5.34 -21 4.68 -21 4 C-18.77155786 3.3516711 -16.5422154 2.70643631 -14.3125 2.0625 C-12.45044922 1.52302734 -12.45044922 1.52302734 -10.55078125 0.97265625 C-2.47761194 -1.23880597 -2.47761194 -1.23880597 0 0 Z " fill="#134358" transform="translate(120,92)"/>
<path d="M0 0 C1.65 0.33 3.3 0.66 5 1 C5 3.31 5 5.62 5 8 C5.99 8.33 6.98 8.66 8 9 C7.34 9 6.68 9 6 9 C6 10.32 6 11.64 6 13 C1.545 12.01 1.545 12.01 -3 11 C-2.34 10.01 -1.68 9.02 -1 8 C-0.34 8.33 0.32 8.66 1 9 C0.67 6.03 0.34 3.06 0 0 Z " fill="#DCE3E6" transform="translate(91,84)"/>
<path d="M0 0 C3.465 1.485 3.465 1.485 7 3 C7.33 6.3 7.66 9.6 8 13 C6.02 13.99 6.02 13.99 4 15 C3.01 16.485 3.01 16.485 2 18 C1.896875 17.38125 1.79375 16.7625 1.6875 16.125 C1.12474627 13.63473516 1.12474627 13.63473516 -2 12 C-0.75 10.5 -0.75 10.5 1 9 C2.32 9 3.64 9 5 9 C5 7.35 5 5.7 5 4 C2.525 3.01 2.525 3.01 0 2 C0 1.34 0 0.68 0 0 Z " fill="#DEE2E6" transform="translate(141,76)"/>
<path d="M0 0 C4.69420205 2.48516579 8.62309271 4.77886588 12 9 C11.8125 11.3125 11.8125 11.3125 11 13 C9.68 11.68 8.36 10.36 7 9 C6.67 9.99 6.34 10.98 6 12 C1.545 10.02 1.545 10.02 -3 8 C0.47823115 6.84058962 2.45895578 7.29179116 6 8 C6 7.34 6 6.68 6 6 C5.401875 5.731875 4.80375 5.46375 4.1875 5.1875 C2.02775192 4.01506533 0.64209744 2.80630718 -1 1 C-0.67 0.67 -0.34 0.34 0 0 Z " fill="#D2D8DE" transform="translate(121,64)"/>
<path d="M0 0 C2.97 0.495 2.97 0.495 6 1 C6 1.33 6 1.66 6 2 C4.35 2 2.7 2 1 2 C0.86207031 2.57363281 0.72414063 3.14726563 0.58203125 3.73828125 C0.02039074 5.92076349 -0.59506347 8.05122252 -1.3125 10.1875 C-1.53550781 10.88230469 -1.75851563 11.57710937 -1.98828125 12.29296875 C-3 14 -3 14 -5.10546875 14.73828125 C-5.73066406 14.82464844 -6.35585938 14.91101563 -7 15 C-6.72694671 8.44672101 -4.18788859 4.93069452 0 0 Z " fill="#2F4F6C" transform="translate(64,71)"/>
<path d="M0 0 C-0.26171875 1.90625 -0.26171875 1.90625 -1 4 C-2.70703125 4.90625 -2.70703125 4.90625 -4.8125 5.5 C-8.43416639 6.67687902 -10.52471852 8.00903488 -13 11 C-13.66 10.67 -14.32 10.34 -15 10 C-13.125 5.25 -13.125 5.25 -12 3 C-9.78515625 2.1484375 -9.78515625 2.1484375 -7.0625 1.375 C-6.16660156 1.11460938 -5.27070312 0.85421875 -4.34765625 0.5859375 C-2 0 -2 0 0 0 Z " fill="#1F4260" transform="translate(78,72)"/>
<path d="M0 0 C3 2 3 2 3.6875 4.625 C3.790625 5.40875 3.89375 6.1925 4 7 C5.2065625 7.185625 5.2065625 7.185625 6.4375 7.375 C7.7059375 7.684375 7.7059375 7.684375 9 8 C9.33 8.66 9.66 9.32 10 10 C4.06 10.495 4.06 10.495 -2 11 C-1.125 1.125 -1.125 1.125 0 0 Z " fill="#152E46" transform="translate(126,79)"/>
<path d="M0 0 C5.95002458 -0.3797888 10.45276448 0.92516191 16 3 C16.99 3.33 17.98 3.66 19 4 C19 4.66 19 5.32 19 6 C18.31292969 5.98839844 17.62585938 5.97679688 16.91796875 5.96484375 C16.01691406 5.95582031 15.11585937 5.94679688 14.1875 5.9375 C13.29417969 5.92589844 12.40085937 5.91429688 11.48046875 5.90234375 C8.86586209 5.88990033 8.86586209 5.88990033 6 7 C5.67 5.68 5.34 4.36 5 3 C4.360625 2.87625 3.72125 2.7525 3.0625 2.625 C2.381875 2.41875 1.70125 2.2125 1 2 C0.67 1.34 0.34 0.68 0 0 Z " fill="#E5ECEC" transform="translate(77,103)"/>
<path d="M0 0 C0 0.66 0 1.32 0 2 C-17.85649203 5.44419134 -17.85649203 5.44419134 -26 5 C-23.04559184 2.04559184 -19.48016048 2.05511111 -15.5 1.4375 C-2.63018452 -0.62293844 -2.63018452 -0.62293844 0 0 Z " fill="#062134" transform="translate(122,74)"/>
<path d="M0 0 C0 2.97 0 5.94 0 9 C-1.98 8.34 -3.96 7.68 -6 7 C-6 6.01 -6 5.02 -6 4 C-5.34 4 -4.68 4 -4 4 C-4 3.34 -4 2.68 -4 2 C-4.61875 2.20625 -5.2375 2.4125 -5.875 2.625 C-6.57625 2.74875 -7.2775 2.8725 -8 3 C-8.66 2.34 -9.32 1.68 -10 1 C-6.42181037 -1.33958553 -4.07775191 -0.9267618 0 0 Z " fill="#CBDDDD" transform="translate(96,109)"/>
<path d="M0 0 C0.33 0.99 0.66 1.98 1 3 C1.99 3.33 2.98 3.66 4 4 C3.01 4 2.02 4 1 4 C0.8453125 5.546875 0.8453125 5.546875 0.6875 7.125 C0.00352161 10.98015093 -1.00699485 13.65175135 -3 17 C-3.66 17.33 -4.32 17.66 -5 18 C-4.40075776 13.80530429 -3.42500059 9.99000166 -2 6 C-4.64 6.33 -7.28 6.66 -10 7 C-10 6.34 -10 5.68 -10 5 C-5.545 4.505 -5.545 4.505 -1 4 C-0.67 2.68 -0.34 1.36 0 0 Z " fill="#A3ABB2" transform="translate(138,84)"/>
<path d="M0 0 C2 2 2 2 2.0546875 3.84765625 C1.99539062 4.57855469 1.93609375 5.30945313 1.875 6.0625 C1.74773708 10.70385372 2.94394931 13.85744864 5.02734375 17.95703125 C5.98301713 19.96432914 6.53709427 21.83165213 7 24 C1.59258967 19.3233208 -0.07414363 14.63220574 -1.8125 7.8125 C-2.02380949 4.64285758 -1.40825813 2.81651625 0 0 Z " fill="#EEF1F3" transform="translate(55,82)"/>
<path d="M0 0 C7.98676972 1.51473219 15.40122878 4.16802552 23 7 C23 7.66 23 8.32 23 9 C17.94919956 8.41646721 13.50826545 7.33375682 8.6875 5.625 C7.47449219 5.20476562 6.26148437 4.78453125 5.01171875 4.3515625 C2 3 2 3 0 0 Z " fill="#349496" transform="translate(74,111)"/>
<path d="M0 0 C3.5625 0.1875 3.5625 0.1875 5.5625 2.1875 C4.5725 2.5175 3.5825 2.8475 2.5625 3.1875 C2.5625 2.5275 2.5625 1.8675 2.5625 1.1875 C1.9025 1.1875 1.2425 1.1875 0.5625 1.1875 C0.76875 1.80625 0.975 2.425 1.1875 3.0625 C1.31125 3.76375 1.435 4.465 1.5625 5.1875 C-0.4375 7.1875 -0.4375 7.1875 -2.71484375 7.453125 C-3.59269531 7.44796875 -4.47054687 7.4428125 -5.375 7.4375 C-6.25027344 7.44265625 -7.12554687 7.4478125 -8.02734375 7.453125 C-10.4375 7.1875 -10.4375 7.1875 -13.4375 5.1875 C-10.4675 5.5175 -7.4975 5.8475 -4.4375 6.1875 C-4.458125 5.383125 -4.47875 4.57875 -4.5 3.75 C-4.40421053 -0.1773682 -4.04269526 0.22051065 0 0 Z " fill="#1C6F68" transform="translate(98.4375,70.8125)"/>
<path d="M0 0 C3.67024761 1.22341587 4.3606842 2.83514059 6.1484375 6.14453125 C7.18118719 8.39478859 7.70252005 10.54579041 8 13 C5.525 12.01 5.525 12.01 3 11 C2.67 8.69 2.34 6.38 2 4 C1.01 4 0.02 4 -1 4 C-0.67 2.68 -0.34 1.36 0 0 Z " fill="#284562" transform="translate(128,73)"/>
<path d="M0 0 C1.79158489 -0.02696365 3.58328473 -0.04637917 5.375 -0.0625 C6.37273437 -0.07410156 7.37046875 -0.08570312 8.3984375 -0.09765625 C11 0 11 0 13 1 C13 1.66 13 2.32 13 3 C13.66 3 14.32 3 15 3 C15 3.66 15 4.32 15 5 C12.36 5 9.72 5 7 5 C6.67 4.01 6.34 3.02 6 2 C4.35 2 2.7 2 1 2 C0.67 1.34 0.34 0.68 0 0 Z " fill="#0C3256" transform="translate(70,93)"/>
<path d="M0 0 C-1.02791832 3.08375495 -1.70106836 3.87790925 -4 6 C-4.556875 6.556875 -5.11375 7.11375 -5.6875 7.6875 C-6.3371875 8.3371875 -6.3371875 8.3371875 -7 9 C-7.99 8.67 -8.98 8.34 -10 8 C-10 7.67 -10 7.34 -10 7 C-11.32 6.67 -12.64 6.34 -14 6 C-13.195625 5.731875 -12.39125 5.46375 -11.5625 5.1875 C-10.716875 4.795625 -9.87125 4.40375 -9 4 C-8.67 3.01 -8.34 2.02 -8 1 C-5.07175348 0.02391783 -3.04386724 -0.08226668 0 0 Z " fill="#98A0A3" transform="translate(119,81)"/>
<path d="M0 0 C0.66 0.33 1.32 0.66 2 1 C-2.88910576 4.96413981 -5.81946461 7.21415901 -12.1875 7.625 C-13.27417969 7.69976562 -14.36085938 7.77453125 -15.48046875 7.8515625 C-16.72763672 7.92503906 -16.72763672 7.92503906 -18 8 C-15.07038067 5.49369722 -13.08812486 4.59471506 -9.25 4.3125 C-8.45078125 4.24675781 -7.6515625 4.18101563 -6.828125 4.11328125 C-6.22484375 4.07589844 -5.6215625 4.03851563 -5 4 C-5 3.34 -5 2.68 -5 2 C-2.625 0.9375 -2.625 0.9375 0 0 Z " fill="#4F763D" transform="translate(134,112)"/>
<path d="M0 0 C0.66 3.63 1.32 7.26 2 11 C1.01 11 0.02 11 -1 11 C-3.90322818 7.35022743 -5 5.74147821 -5 1 C-3 0 -3 0 0 0 Z " fill="#365C7B" transform="translate(54,88)"/>
<path d="M0 0 C0.33 1.32 0.66 2.64 1 4 C-0.134375 4.37125 -1.26875 4.7425 -2.4375 5.125 C-7.47072777 6.98882495 -11.65662922 9.8932834 -16 13 C-16 12.01 -16 11.02 -16 10 C-12.35610829 6.4699799 -6.31273522 2 -1 2 C-0.67 1.34 -0.34 0.68 0 0 Z " fill="#D7E0E1" transform="translate(78,60)"/>
<path d="M0 0 C1.3125 2.0625 1.3125 2.0625 2 4 C-0.97 3.505 -0.97 3.505 -4 3 C-4.33 3.99 -4.66 4.98 -5 6 C-6.32 5.01 -7.64 4.02 -9 3 C-8.67 2.01 -8.34 1.02 -8 0 C-4.66411172 -1.11196276 -3.29427581 -1.09809194 0 0 Z " fill="#D6E0E2" transform="translate(97,50)"/>
<path d="M0 0 C3.3 0 6.6 0 10 0 C10 0.66 10 1.32 10 2 C8.02 2.33 6.04 2.66 4 3 C4.33 5.97 4.66 8.94 5 12 C1.04059368 8.04059368 1.02176476 5.42321298 0 0 Z " fill="#294A69" transform="translate(56,90)"/>
<path d="M0 0 C6.00477279 0.64916463 11.400781 2.85795003 17 5 C17 5.33 17 5.66 17 6 C13.37 6 9.74 6 6 6 C5.67 5.01 5.34 4.02 5 3 C3.02 3 1.04 3 -1 3 C-0.67 2.01 -0.34 1.02 0 0 Z " fill="#1A4054" transform="translate(79,115)"/>
<path d="M0 0 C5.45479185 0.56820748 9.91059256 1.94637945 15 4 C15 7.10551666 14.4606285 8.35261084 13 11 C13.66 11.33 14.32 11.66 15 12 C14.34 12 13.68 12 13 12 C12.67 12.99 12.34 13.98 12 15 C12 11.37 12 7.74 12 4 C10.7625 3.896875 9.525 3.79375 8.25 3.6875 C4.7207134 3.26198318 2.62839034 2.51887408 0 0 Z " fill="#A6B3B6" transform="translate(84,103)"/>
<path d="M0 0 C3.71888239 0.50712033 6.73454239 1.11608215 10 3 C9.34 3.66 8.68 4.32 8 5 C8.61875 5.12375 9.2375 5.2475 9.875 5.375 C12 6 12 6 14 8 C13.34 8 12.68 8 12 8 C11.67 8.66 11.34 9.32 11 10 C4.18774446 6.53194263 4.18774446 6.53194263 3.25 3.875 C3.1675 3.25625 3.085 2.6375 3 2 C2.01 1.34 1.02 0.68 0 0 Z " fill="#BFD2D3" transform="translate(71,100)"/>
<path d="M0 0 C0.66 0.99 1.32 1.98 2 3 C0.13497412 5.62799102 -1.30410791 6.86365751 -4.4921875 7.48828125 C-6.9964272 7.72593573 -9.48653979 7.9040664 -12 8 C-12 6.68 -12 5.36 -12 4 C-10.68 4.33 -9.36 4.66 -8 5 C-7.67 4.34 -7.34 3.68 -7 3 C-6.34 3 -5.68 3 -5 3 C-4.67 3.66 -4.34 4.32 -4 5 C-2.68 3.35 -1.36 1.7 0 0 Z " fill="#8A979C" transform="translate(132,100)"/>
<path d="M0 0 C6.52307692 -0.36923077 6.52307692 -0.36923077 8.9375 1.5 C9.288125 1.995 9.63875 2.49 10 3 C9 4 9 4 6.49609375 4.09765625 C4.98208984 4.08025391 4.98208984 4.08025391 3.4375 4.0625 C2.42558594 4.05347656 1.41367188 4.04445313 0.37109375 4.03515625 C-0.41136719 4.02355469 -1.19382812 4.01195313 -2 4 C-1.34 2.68 -0.68 1.36 0 0 Z " fill="#0C2742" transform="translate(121,90)"/>
<path d="M0 0 C2.97 0.33 5.94 0.66 9 1 C8.67 2.32 8.34 3.64 8 5 C5.36 5 2.72 5 0 5 C0 3.35 0 1.7 0 0 Z " fill="#D7E6E5" transform="translate(81,60)"/>
<path d="M0 0 C-1 2 -1 2 -4.16015625 3.0703125 C-5.45873661 3.42991937 -6.75966085 3.78114216 -8.0625 4.125 C-8.72572266 4.30675781 -9.38894531 4.48851563 -10.07226562 4.67578125 C-11.71291479 5.12430404 -13.35622449 5.56307386 -15 6 C-15 5.01 -15 4.02 -15 3 C-9.63999211 0.74315457 -5.8022175 -0.36263859 0 0 Z " fill="#1E6E6F" transform="translate(112,114)"/>
<path d="M0 0 C2.97 0 5.94 0 9 0 C9.33 0.99 9.66 1.98 10 3 C7.36 3.33 4.72 3.66 2 4 C2 5.98 2 7.96 2 10 C1.67 10 1.34 10 1 10 C0.67 6.7 0.34 3.4 0 0 Z " fill="#21557A" transform="translate(60,93)"/>
<path d="M0 0 C1.32 0.33 2.64 0.66 4 1 C3.01 1 2.02 1 1 1 C1 1.66 1 2.32 1 3 C2.98 2.67 4.96 2.34 7 2 C7 3.98 7 5.96 7 8 C1.125 7.125 1.125 7.125 0 6 C-0.04080783 4.00041636 -0.04254356 1.99954746 0 0 Z " fill="#E4ECEF" transform="translate(68,84)"/>
<path d="M0 0 C0.99 0.33 1.98 0.66 3 1 C1.47987323 6.40489519 -2.27385218 9.98492628 -6 14 C-6.33 13.01 -6.66 12.02 -7 11 C-5.79042063 9.49619862 -4.57228276 7.99698084 -3.28125 6.5625 C-1.62987977 4.54863386 -0.79706201 2.46364622 0 0 Z " fill="#173343" transform="translate(137,95)"/>
<path d="M0 0 C2.64 0 5.28 0 8 0 C7.67 1.32 7.34 2.64 7 4 C8.98 3.67 10.96 3.34 13 3 C13.33 3.99 13.66 4.98 14 6 C12.41532272 5.71572583 10.8322943 5.42225182 9.25 5.125 C8.36828125 4.96257812 7.4865625 4.80015625 6.578125 4.6328125 C4.13052256 4.03203736 2.19400143 3.22002883 0 2 C0 1.34 0 0.68 0 0 Z " fill="#264957" transform="translate(71,114)"/>
<path d="M0 0 C0.66 0.66 1.32 1.32 2 2 C2.804375 1.979375 3.60875 1.95875 4.4375 1.9375 C7 2 7 2 8.75 3.3125 C10 5 10 5 11 8 C10.278125 7.649375 9.55625 7.29875 8.8125 6.9375 C5.6877295 5.89590983 4.11838004 6.10903428 1 7 C0.67 4.69 0.34 2.38 0 0 Z " fill="#BED6D7" transform="translate(64,100)"/>
<path d="M0 0 C3.38818502 1.43605193 5.3186598 3.20466579 7.6875 6 C8.28949219 6.70125 8.89148438 7.4025 9.51171875 8.125 C11 10 11 10 12 12 C7.96945077 11.48256463 6.34736145 9.56870538 3.75 6.5625 C3.04359375 5.75941406 2.3371875 4.95632812 1.609375 4.12890625 C0 2 0 2 0 0 Z " fill="#26475E" transform="translate(54,99)"/>
<path d="M0 0 C0.66 1.32 1.32 2.64 2 4 C-0.73905345 5.36952673 -2.97087332 5.12621361 -6 5 C-6.66 4.67 -7.32 4.34 -8 4 C-8 3.34 -8 2.68 -8 2 C-4.91190305 0.23537317 -3.76687864 0 0 0 Z " fill="#92A2B0" transform="translate(64,86)"/>
<path d="M0 0 C1.32 0 2.64 0 4 0 C4 1.98 4 3.96 4 6 C-2.28571429 8.42857143 -2.28571429 8.42857143 -6 7 C-4.02 6.67 -2.04 6.34 0 6 C-0.185625 5.38125 -0.37125 4.7625 -0.5625 4.125 C-1 2 -1 2 0 0 Z " fill="#075751" transform="translate(107,69)"/>
<path d="M0 0 C0.33 0.66 0.66 1.32 1 2 C4.3 2 7.6 2 11 2 C11 2.66 11 3.32 11 4 C2.585 4.495 2.585 4.495 -6 5 C-6 4.67 -6 4.34 -6 4 C-4.35 4 -2.7 4 -1 4 C-0.67 2.68 -0.34 1.36 0 0 Z " fill="#72975E" transform="translate(102,56)"/>
<path d="M0 0 C0.66 0.99 1.32 1.98 2 3 C2.99 3.66 3.98 4.32 5 5 C0.03083364 4.48594831 -4.29026351 3.76615118 -9 2 C-5.54970958 -0.30019361 -4.05445642 -0.43132515 0 0 Z " fill="#6CBDC0" transform="translate(76,95)"/>
<path d="M0 0 C2.31 0.33 4.62 0.66 7 1 C7 2.65 7 4.3 7 6 C5.02 6.33 3.04 6.66 1 7 C0.67 4.69 0.34 2.38 0 0 Z " fill="#9DA9AE" transform="translate(96,89)"/>
<path d="M0 0 C1.98 0 3.96 0 6 0 C6 2.31 6 4.62 6 7 C5.38125 6.2265625 5.38125 6.2265625 4.75 5.4375 C4.1725 4.963125 3.595 4.48875 3 4 C0.83700789 4.22757731 0.83700789 4.22757731 -1 5 C-0.67 3.35 -0.34 1.7 0 0 Z " fill="#396B8E" transform="translate(76,87)"/>
<path d="M0 0 C2.31 0 4.62 0 7 0 C7.33 0.99 7.66 1.98 8 3 C6.35 3 4.7 3 3 3 C3 3.66 3 4.32 3 5 C1.576875 5.4640625 1.576875 5.4640625 0.125 5.9375 C-2.86080408 6.87394742 -2.86080408 6.87394742 -5 8 C-4.67 6.35 -4.34 4.7 -4 3 C-1.03 3.495 -1.03 3.495 2 4 C1.34 2.68 0.68 1.36 0 0 Z " fill="#89A0A2" transform="translate(97,50)"/>
<path d="M0 0 C0.99 0 1.98 0 3 0 C3.8125 1.6875 3.8125 1.6875 4 4 C1.5625 6.75 1.5625 6.75 -1 9 C-1.125 2.25 -1.125 2.25 0 0 Z " fill="#132D46" transform="translate(128,97)"/>
<path d="M0 0 C0.99 0 1.98 0 3 0 C3 0.66 3 1.32 3 2 C3.598125 2.12375 4.19625 2.2475 4.8125 2.375 C7 3 7 3 10 5 C5.545 5.495 5.545 5.495 1 6 C0.67 4.02 0.34 2.04 0 0 Z " fill="#959FA3" transform="translate(96,85)"/>
<path d="M0 0 C1.65 0.33 3.3 0.66 5 1 C5 1.99 5 2.98 5 4 C2.36 4.66 -0.28 5.32 -3 6 C-3 4.35 -3 2.7 -3 1 C-2.01 1 -1.02 1 0 1 C0 0.67 0 0.34 0 0 Z " fill="#3E7B74" transform="translate(102,71)"/>
<path d="M0 0 C3.465 1.98 3.465 1.98 7 4 C7 4.66 7 5.32 7 6 C1.25 6.125 1.25 6.125 -1 5 C-0.67 3.35 -0.34 1.7 0 0 Z " fill="#214263" transform="translate(120,66)"/>
<path d="M0 0 C0.66 0.33 1.32 0.66 2 1 C2 1.66 2 2.32 2 3 C3.32 3 4.64 3 6 3 C6 4.32 6 5.64 6 7 C4.125 7.625 4.125 7.625 2 8 C1.34 7.34 0.68 6.68 0 6 C0.33 5.34 0.66 4.68 1 4 C-0.32 3.34 -1.64 2.68 -3 2 C-2.01 1.34 -1.02 0.68 0 0 Z " fill="#C0D8D8" transform="translate(86,108)"/>
<path d="M0 0 C3.34373475 0.55728913 6.03312999 1.35173889 9 3 C8.67 4.65 8.34 6.3 8 8 C7.608125 7.566875 7.21625 7.13375 6.8125 6.6875 C4.97761098 4.85439739 4.97761098 4.85439739 2.3125 3.4375 C1.549375 2.963125 0.78625 2.48875 0 2 C0 1.34 0 0.68 0 0 Z " fill="#14334B" transform="translate(111,63)"/>
<path d="M0 0 C3.96 0 7.92 0 12 0 C11.34 1.32 10.68 2.64 10 4 C6.62294375 3.46274105 3.303314 2.88935377 0 2 C0 1.34 0 0.68 0 0 Z " fill="#DCE7E8" transform="translate(76,84)"/>
<path d="M0 0 C1.32 0.66 2.64 1.32 4 2 C2.1875 4.5 2.1875 4.5 0 7 C-0.99 7 -1.98 7 -3 7 C-1.125 2.25 -1.125 2.25 0 0 Z " fill="#284A6C" transform="translate(66,75)"/>
<path d="M0 0 C3 1 3 1 4 3 C5.65 3 7.3 3 9 3 C6.38372835 5.61627165 4.64734979 5.77669287 1 6 C-0.875 4.5625 -0.875 4.5625 -2 3 C-1.34 2.01 -0.68 1.02 0 0 Z " fill="#909E9F" transform="translate(116,104)"/>
<path d="M0 0 C1.46015291 0.28241641 2.91809793 0.57626614 4.375 0.875 C5.18710938 1.03742188 5.99921875 1.19984375 6.8359375 1.3671875 C9 2 9 2 11 4 C7.7 4 4.4 4 1 4 C0.67 2.68 0.34 1.36 0 0 Z " fill="#DFE8E9" transform="translate(65,99)"/>
<path d="M0 0 C2 3 2 3 2 6 C2.99 6.33 3.98 6.66 5 7 C4.01 7 3.02 7 2 7 C2 7.66 2 8.32 2 9 C0.68 8.67 -0.64 8.34 -2 8 C-1.47731534 5.23723823 -0.89130413 2.6739124 0 0 Z " fill="#8EA3AF" transform="translate(90,84)"/>
<path d="M0 0 C2.3431213 0.25561323 4.67843403 0.59270772 7 1 C7.33 1.66 7.66 2.32 8 3 C2.06 3.495 2.06 3.495 -4 4 C-3.67 3.34 -3.34 2.68 -3 2 C-2.01 2 -1.02 2 0 2 C0 1.34 0 0.68 0 0 Z " fill="#435669" transform="translate(128,86)"/>
<path d="M0 0 C-0.66 0 -1.32 0 -2 0 C-2 0.66 -2 1.32 -2 2 C-0.68 2.33 0.64 2.66 2 3 C-5.42857143 4.28571429 -5.42857143 4.28571429 -9 3 C-9 2.34 -9 1.68 -9 1 C-5.57367167 -0.61798838 -3.61944899 -1.34053666 0 0 Z " fill="#BBCED5" transform="translate(78,84)"/>
<path d="M0 0 C1.8125 0.1875 1.8125 0.1875 4 1 C5.01866229 2.65532623 6.01810813 4.32260138 7 6 C9.06700655 7.32793606 9.06700655 7.32793606 11 8 C10.67 8.66 10.34 9.32 10 10 C7.03 9.505 7.03 9.505 4 9 C3.71125 7.88625 3.4225 6.7725 3.125 5.625 C2.30758671 1.99708908 2.30758671 1.99708908 0 0 Z " fill="#717E8C" transform="translate(125,78)"/>
<path d="M0 0 C3 1 3 1 4.1875 2.5625 C5.37040794 6.11122383 5.12443279 9.26701621 5 13 C2.53698577 10.53698577 2.23233479 8.72639964 1.375 5.375 C1.11460937 4.37210937 0.85421875 3.36921875 0.5859375 2.3359375 C0.39257812 1.56507812 0.19921875 0.79421875 0 0 Z " fill="#D7DCE1" transform="translate(133,77)"/>
<path d="M0 0 C0.99 0.33 1.98 0.66 3 1 C3.66 1.165 4.32 1.33 5 1.5 C6.68809751 1.92202438 8.3492426 2.44974753 10 3 C5.05 4.485 5.05 4.485 0 6 C0 4.02 0 2.04 0 0 Z " fill="#95A2A6" transform="translate(97,111)"/>
<path d="M0 0 C2.475 0.495 2.475 0.495 5 1 C4.01 1.495 4.01 1.495 3 2 C3 2.66 3 3.32 3 4 C3.99 4.33 4.98 4.66 6 5 C5.67 5.99 5.34 6.98 5 8 C2.525 7.01 2.525 7.01 0 6 C0 5.01 0 4.02 0 3 C0.66 3 1.32 3 2 3 C2 2.34 2 1.68 2 1 C1.34 0.67 0.68 0.34 0 0 Z " fill="#DAEAEA" transform="translate(90,110)"/>
<path d="M0 0 C-0.66 0 -1.32 0 -2 0 C-2 1.32 -2 2.64 -2 4 C-4.31 3.67 -6.62 3.34 -9 3 C-9 2.34 -9 1.68 -9 1 C-3.375 -1.125 -3.375 -1.125 0 0 Z " fill="#BFCDD4" transform="translate(99,93)"/>
<path d="M0 0 C3.3 0 6.6 0 10 0 C10.33 0.66 10.66 1.32 11 2 C10.01 2.99 9.02 3.98 8 5 C5.36 3.68 2.72 2.36 0 1 C0 0.67 0 0.34 0 0 Z " fill="#8694A3" transform="translate(118,71)"/>
<path d="M0 0 C3.3 0 6.6 0 10 0 C9.01 0.495 9.01 0.495 8 1 C7.34786708 3.02463255 7.34786708 3.02463255 7 5 C6.67 3.68 6.34 2.36 6 1 C4.68 1 3.36 1 2 1 C1.67 1.99 1.34 2.98 1 4 C0.01 3.34 -0.98 2.68 -2 2 C-1.34 2 -0.68 2 0 2 C0 1.34 0 0.68 0 0 Z " fill="#186B5F" transform="translate(105,68)"/>
<path d="M0 0 C2.35171131 0.59861742 4.6859378 1.26924352 7 2 C7.33 2.66 7.66 3.32 8 4 C5.36 4 2.72 4 0 4 C0 2.68 0 1.36 0 0 Z " fill="#799E4E" transform="translate(99,124)"/>
<path d="M0 0 C-0.66 1.32 -1.32 2.64 -2 4 C-4.375 3.6875 -4.375 3.6875 -7 3 C-7.66 2.01 -8.32 1.02 -9 0 C-5.62182575 -0.84454356 -3.32534757 -1.10844919 0 0 Z " fill="#818B91" transform="translate(123,80)"/>
<path d="M0 0 C2.75 0.25 2.75 0.25 5 1 C5 1.66 5 2.32 5 3 C0.545 3.495 0.545 3.495 -4 4 C-2.3125 1.9375 -2.3125 1.9375 0 0 Z " fill="#0B2742" transform="translate(117,73)"/>
<path d="M0 0 C0.66 0.99 1.32 1.98 2 3 C2.8353125 3.99 2.8353125 3.99 3.6875 5 C4.120625 5.66 4.55375 6.32 5 7 C4.67 7.99 4.34 8.98 4 10 C0.38860104 6.12435233 0.38860104 6.12435233 -1 4 C-0.8125 1.625 -0.8125 1.625 0 0 Z " fill="#D0DADE" transform="translate(57,96)"/>
<path d="M0 0 C-0.33 0.66 -0.66 1.32 -1 2 C-3.64860427 2.59355614 -6.29197322 2.74209269 -9 3 C-9 2.34 -9 1.68 -9 1 C-2.25 -1.125 -2.25 -1.125 0 0 Z " fill="#123250" transform="translate(120,92)"/>
<path d="M0 0 C1.65 0.33 3.3 0.66 5 1 C4.01 1.33 3.02 1.66 2 2 C2 2.66 2 3.32 2 4 C-0.97 4 -3.94 4 -7 4 C-3 2 -3 2 0 2 C0 1.34 0 0.68 0 0 Z " fill="#387592" transform="translate(77,74)"/>
<path d="M0 0 C7.75 -0.125 7.75 -0.125 10 1 C10 1.66 10 2.32 10 3 C3.375 2.25 3.375 2.25 0 0 Z " fill="#258687" transform="translate(87,117)"/>
<path d="M0 0 C2.97 0.33 5.94 0.66 9 1 C5.39338934 2.80330533 2.91606575 3.46599103 -1 4 C-0.67 2.68 -0.34 1.36 0 0 Z " fill="#346582" transform="translate(72,68)"/>
<path d="M0 0 C4.95 1.98 4.95 1.98 10 4 C9.34 4.66 8.68 5.32 8 6 C5.36 4.68 2.72 3.36 0 2 C0 1.34 0 0.68 0 0 Z " fill="#A3ACB4" transform="translate(111,60)"/>
<path d="M0 0 C0.66 0.99 1.32 1.98 2 3 C0.68 4.32 -0.64 5.64 -2 7 C-2.99 6.67 -3.98 6.34 -5 6 C-3.35 4.02 -1.7 2.04 0 0 Z " fill="#6C7982" transform="translate(132,100)"/>
<path d="M0 0 C1.98 0 3.96 0 6 0 C4.515 1.98 4.515 1.98 3 4 C1.35 3.67 -0.3 3.34 -2 3 C-1.34 2.67 -0.68 2.34 0 2 C0 1.34 0 0.68 0 0 Z " fill="#2A7578" transform="translate(124,95)"/>
<path d="M0 0 C1.32 0 2.64 0 4 0 C4 0.66 4 1.32 4 2 C4.99 2 5.98 2 7 2 C7 2.66 7 3.32 7 4 C4.03 3.505 4.03 3.505 1 3 C0.67 2.01 0.34 1.02 0 0 Z " fill="#BDCED7" transform="translate(68,88)"/>
<path d="M0 0 C0.33 0.66 0.66 1.32 1 2 C1.66 2.33 2.32 2.66 3 3 C2.67 3.33 2.34 3.66 2 4 C0.30858344 3.91036938 -1.37959602 3.75422324 -3.0625 3.5625 C-4.44115234 3.40974609 -4.44115234 3.40974609 -5.84765625 3.25390625 C-6.55792969 3.17011719 -7.26820312 3.08632812 -8 3 C-8 2.67 -8 2.34 -8 2 C-5.36 2 -2.72 2 0 2 C0 1.34 0 0.68 0 0 Z " fill="#B3C891" transform="translate(87,63)"/>
<path d="M0 0 C1.32 0.33 2.64 0.66 4 1 C3.67 1.99 3.34 2.98 3 4 C3.66 4 4.32 4 5 4 C5.33 3.34 5.66 2.68 6 2 C6 2.99 6 3.98 6 5 C4.35 5 2.7 5 1 5 C0.67 3.35 0.34 1.7 0 0 Z " fill="#8B9B9D" transform="translate(101,61)"/>
<path d="M0 0 C0.99 0.66 1.98 1.32 3 2 C1.68 3.32 0.36 4.64 -1 6 C-1.66 5.01 -2.32 4.02 -3 3 C-2.01 2.01 -1.02 1.02 0 0 Z " fill="#5A7376" transform="translate(102,52)"/>
</svg>
